PathFileType	4	(X/Y/Z)	C:/Users/opensim2020/Desktop/walking_exp_matlab/subject06_walking13_straight_03_cyclic.trc	
DataRate	CameraRate	NumFrames	NumMarkers	Units	OrigDataRate	OrigDataStartFrame	OrigNumFrames	
100.00	100.00	6	50	mm	100.00	2235	111	
Frame#	Time	LFHD			RFHD			LBHD			RBHD			C7			T10			CLAV			STRN			RBAK			LSHO			LUPA			LELB			LFRM			LWRA			LWRB			LFIN			RSHO			RUPA			RELB			RFRM			RWRA			RWRB			RFIN			LASI			RASI			LPSI			RPSI			LTHI			LKNE			LTIB			LANK			LHEE			LTOE			RTHI			RKNE			RTIB			RANK			RHEE			RTOE			*39			*40			*41			*42			*43			*44			*45			*46			*47			*48			*49			
		X1	Y1	Z1	X2	Y2	Z2	X3	Y3	Z3	X4	Y4	Z4	X5	Y5	Z5	X6	Y6	Z6	X7	Y7	Z7	X8	Y8	Z8	X9	Y9	Z9	X10	Y10	Z10	X11	Y11	Z11	X12	Y12	Z12	X13	Y13	Z13	X14	Y14	Z14	X15	Y15	Z15	X16	Y16	Z16	X17	Y17	Z17	X18	Y18	Z18	X19	Y19	Z19	X20	Y20	Z20	X21	Y21	Z21	X22	Y22	Z22	X23	Y23	Z23	X24	Y24	Z24	X25	Y25	Z25	X26	Y26	Z26	X27	Y27	Z27	X28	Y28	Z28	X29	Y29	Z29	X30	Y30	Z30	X31	Y31	Z31	X32	Y32	Z32	X33	Y33	Z33	X34	Y34	Z34	X35	Y35	Z35	X36	Y36	Z36	X37	Y37	Z37	X38	Y38	Z38	X39	Y39	Z39	X40	Y40	Z40	X41	Y41	Z41	X42	Y42	Z42	X43	Y43	Z43	X44	Y44	Z44	X45	Y45	Z45	X46	Y46	Z46	X47	Y47	Z47	X48	Y48	Z48	X49	Y49	Z49	X50	Y50	Z50	

28	0.270	-1044.77100	-211.19435	1667.87341	-914.14203	-223.49954	1653.01770	-1059.68909	-344.57300	1618.20911	-931.30695	-355.51385	1608.17236	-1004.04260	-355.88889	1459.34009	-995.36560	-404.44333	1132.24670	-999.14563	-248.12029	1378.19409	-1005.55237	-213.77800	1202.28784	-922.21429	-437.75607	1292.30225	-1163.51843	-297.41400	1411.72766	-1231.81128	-317.14005	1208.63281	-1241.02930	-335.31000	1097.05701	-1268.26135	-324.97321	948.30859	-1236.80688	-264.96960	829.07758	-1266.25574	-331.06577	829.38556	-1273.88977	-296.23022	745.82068	-840.40942	-296.97522	1412.55920	-744.81317	-312.70999	1216.62012	-724.15570	-278.79117	1099.85498	-706.97876	-221.65018	994.93024	-744.13715	-115.85041	889.34528	-699.23059	-162.09453	871.62494	-698.95209	-98.33198	817.39020	-1104.02661	-229.86189	969.45251	-884.85065	-232.91339	972.10870	-1079.65222	-389.75021	994.27173	-911.21893	-384.05484	999.40967	-1177.47363	-228.40190	663.83777	-1157.72571	-174.27808	509.15619	-1153.05359	-263.77747	272.89313	-1117.85376	-306.50363	104.73383	-1066.75110	-343.30292	95.12142	-1134.22241	-177.03159	47.21214	-840.10358	-293.69211	635.99701	-866.75702	-293.43353	510.62860	-877.48309	-365.29007	250.36568	-932.45020	-394.53720	67.79586	-977.81812	-435.45438	45.11396	-930.58173	-243.51212	32.95821	-993.94617	-315.01279	1707.84521																														 
29	0.280	-1044.81995	-201.50757	1666.93359	-914.13623	-213.90712	1652.22546	-1059.70935	-334.91406	1617.31848	-931.47076	-346.29340	1607.46655	-1003.98572	-346.32468	1458.60754	-994.95209	-395.20865	1131.54773	-998.98340	-238.70607	1377.30859	-1005.13580	-204.44849	1201.42188	-921.92725	-428.40179	1291.79126	-1163.31104	-287.48962	1410.57520	-1231.63391	-309.99643	1207.93909	-1240.53662	-330.43680	1096.78772	-1267.81799	-323.30606	947.81549	-1235.53076	-266.45566	827.15594	-1266.13660	-332.22437	829.33862	-1272.46179	-300.18408	744.32928	-840.37390	-287.59033	1411.98413	-744.02032	-301.29416	1216.39636	-723.03516	-265.62143	1100.22375	-705.71381	-206.19771	996.71698	-742.83105	-97.66740	893.97614	-698.04486	-143.59322	874.90656	-697.69415	-78.38271	822.55225	-1103.59900	-220.42128	968.95538	-884.44415	-223.53922	971.39093	-1079.30615	-380.35477	993.45007	-911.16626	-374.30542	998.27222	-1177.46375	-218.14339	663.46466	-1157.46167	-162.89603	509.09464	-1152.95325	-241.92380	268.56555	-1118.05176	-276.42767	98.52918	-1067.02637	-313.07889	87.40738	-1133.23596	-144.47963	46.65856	-840.44446	-286.37790	635.10413	-866.90771	-288.00882	509.74658	-877.51538	-362.65784	250.10649	-932.69586	-394.04865	67.94037	-978.00989	-435.16882	45.33890	-930.58649	-243.14284	32.65941	-994.08112	-305.43005	1707.01843																														 
30	0.290	-1044.98584	-191.84830	1665.96362	-914.30023	-204.20338	1651.37244	-1059.82690	-325.30457	1616.33923	-931.36127	-336.33844	1606.54724	-1004.00287	-336.69675	1457.72278	-994.52075	-385.86920	1130.68127	-998.84686	-229.16939	1376.31140	-1004.78064	-195.07506	1200.50964	-921.72296	-418.98056	1291.05518	-1163.27246	-277.56195	1409.51587	-1231.38611	-302.84366	1207.30005	-1240.28455	-325.59933	1096.62500	-1267.33276	-321.45703	947.41199	-1233.72778	-267.68832	825.48120	-1265.82532	-332.74954	829.23932	-1271.16821	-303.18686	743.22095	-840.37872	-278.14709	1411.30432	-743.43292	-289.88062	1216.09009	-722.00153	-252.56120	1100.55005	-704.61273	-190.89893	998.44751	-741.64825	-80.04161	898.35266	-697.01611	-125.51249	878.18079	-696.39532	-59.13442	827.52869	-1103.19897	-210.89719	968.27069	-883.93500	-214.24686	970.38330	-1078.97217	-370.91846	992.57019	-910.79529	-364.90204	997.20844	-1177.46875	-208.47966	662.79358	-1157.25012	-151.99390	508.71576	-1153.33081	-220.38875	264.51608	-1118.32996	-246.14027	92.81323	-1067.84644	-282.82681	80.27566	-1132.39282	-111.47062	46.93457	-840.75189	-278.95187	634.15436	-867.02722	-282.37222	508.78867	-877.53351	-359.94427	249.80664	-932.89575	-393.53168	68.03992	-978.11890	-434.95752	45.71501	-930.49567	-242.78659	32.27326	-994.27246	-295.64676	1706.07605																														 
31	0.300	-1045.13672	-182.05927	1664.80981	-914.46991	-194.51880	1650.35974	-1059.95715	-315.48972	1615.23169	-931.52344	-326.65308	1605.57092	-1004.02136	-327.09149	1456.75085	-994.15997	-376.40582	1129.67615	-998.78094	-219.64738	1375.25452	-1004.47015	-185.59717	1199.42749	-921.54590	-409.60025	1290.09961	-1163.21472	-267.64349	1408.38330	-1231.32275	-295.82477	1206.71777	-1240.13977	-320.73306	1096.41174	-1266.85962	-319.44540	947.10657	-1232.00732	-269.33765	823.95184	-1265.67456	-333.18539	829.44910	-1269.57056	-305.88791	742.41229	-840.43921	-268.68222	1410.52454	-742.99475	-278.65045	1215.72363	-721.11316	-239.62732	1100.79907	-703.61646	-175.89815	1000.10339	-740.59363	-62.70925	902.67133	-696.06415	-107.66114	881.40393	-695.36157	-40.12270	832.42719	-1102.90027	-201.33641	967.42682	-883.49310	-204.85110	969.46979	-1078.63623	-361.44470	991.56818	-910.42810	-355.28253	996.09326	-1177.45532	-199.04782	661.82184	-1157.03613	-141.58916	508.00986	-1153.58582	-198.61383	260.60666	-1118.65662	-215.63255	87.83649	-1068.13501	-252.10258	73.82320	-1131.38843	-78.22251	48.01776	-841.03430	-271.47894	633.17474	-867.06183	-276.74661	507.71655	-877.45984	-357.15076	249.54721	-933.05994	-392.92111	68.19480	-978.17139	-434.74344	46.16344	-930.42291	-242.34103	31.89869	-994.53198	-285.88309	1705.08936																														 
32	0.310	-1045.42822	-172.30556	1663.46460	-914.71228	-184.71179	1649.18518	-1060.22485	-305.76553	1614.06848	-931.68512	-316.94614	1604.55701	-1004.10706	-317.55679	1455.63965	-993.81885	-366.84262	1128.51843	-998.75385	-210.01372	1374.05432	-1004.26776	-176.04288	1198.29968	-921.39484	-399.79639	1289.05566	-1163.28674	-257.68768	1407.31812	-1231.36499	-289.04727	1206.11292	-1239.99634	-315.81226	1096.27222	-1266.35474	-317.22711	946.81696	-1230.22632	-269.75931	822.84094	-1265.17908	-333.18231	829.59100	-1267.95496	-308.03247	741.78778	-840.54059	-259.13293	1409.64050	-742.56934	-267.37039	1215.15991	-720.31451	-226.81755	1100.93848	-702.79089	-161.12173	1001.66656	-739.74683	-45.80942	906.79987	-695.24506	-90.32413	884.52881	-694.40314	-21.70597	837.15546	-1102.61316	-191.54349	966.46051	-883.28088	-195.01138	968.32788	-1078.34180	-351.65771	990.39844	-910.08887	-345.51831	994.91119	-1177.43445	-190.00551	660.56177	-1156.85730	-131.73511	506.95398	-1153.60510	-176.75186	256.90204	-1119.03345	-185.07802	83.50189	-1068.78796	-221.42433	67.96783	-1130.06030	-45.75766	49.36668	-841.32837	-263.91544	632.05432	-867.12286	-270.98557	506.63013	-877.55884	-354.36319	249.27890	-933.22766	-392.27545	68.36774	-978.06787	-435.00595	47.11150	-930.33710	-241.86819	31.50304	-994.80627	-276.03299	1703.92627																														 
33	0.320	-1045.66870	-162.29752	1662.21924	-914.93219	-174.92300	1647.87964	-1060.41125	-295.94614	1612.80798	-931.96906	-307.12390	1603.44946	-1004.16736	-307.84772	1454.32263	-993.57458	-357.20126	1127.25281	-998.86499	-200.37708	1372.75708	-1004.11420	-166.33127	1197.08850	-921.24884	-390.07709	1287.76465	-1163.41589	-247.91539	1406.12769	-1231.30969	-282.07477	1205.53076	-1239.83618	-310.77078	1096.17554	-1265.87305	-314.78375	946.64484	-1228.74207	-270.09247	821.87970	-1264.49414	-332.60306	829.59930	-1266.40625	-309.40613	741.29010	-840.70197	-249.55980	1408.64026	-742.21167	-256.21927	1214.52380	-719.62323	-214.13089	1100.94165	-701.94531	-146.54630	1003.08759	-739.05206	-29.42509	910.69568	-694.56793	-73.29116	887.44470	-693.67316	-3.88897	841.73779	-1102.41174	-181.74709	965.39941	-883.00269	-185.28009	966.92371	-1078.14221	-341.84619	989.12469	-909.80280	-335.61572	993.64569	-1177.42615	-180.97633	659.00012	-1156.54309	-122.22526	505.57437	-1153.80847	-155.45488	253.65569	-1119.39148	-154.84766	79.85671	-1069.45923	-190.88814	62.90390	-1128.94495	-13.67348	51.59854	-841.63080	-256.20264	630.87952	-867.11835	-264.90536	505.46286	-877.52728	-351.61841	249.02757	-933.32874	-391.70691	68.58113	-978.14471	-434.65659	47.61600	-930.20844	-241.45381	31.21882	-995.18713	-266.13654	1702.66211																														 
